<?xml version="1.0" encoding="UTF-8"?>
<!DOCTYPE svg PUBLIC "-//W3C//DTD SVG 1.1//EN" "http://www.w3.org/Graphics/SVG/1.1/DTD/svg11.dtd">
<!-- Creator: CorelDRAW X8 -->
<svg xmlns="http://www.w3.org/2000/svg" xml:space="preserve" width="82.2357in" height="44.9341in" version="1.1" style="shape-rendering:geometricPrecision; text-rendering:geometricPrecision; image-rendering:optimizeQuality; fill-rule:evenodd; clip-rule:evenodd"
viewBox="0 0 11994 6553"
 xmlns:xlink="http://www.w3.org/1999/xlink">
 <defs>
  <style type="text/css">
   <![CDATA[
    .fil0 {fill:#B6DBF8;fill-rule:nonzero}
   ]]>
  </style>
 </defs>
 <g id="Layer_x0020_1">
  <metadata id="CorelCorpID_0Corel-Layer"/>
  <path class="fil0" d="M0 6553l0 -5997c367,-212 795,-330 1218,-259 293,50 568,205 871,203 286,-1 514,-200 792,-239 568,-80 1099,135 1531,433 225,156 933,567 1208,610 489,76 894,-109 1338,-189 349,-63 767,139 1114,124 824,-35 1070,-808 1811,-726 1125,124 778,292 1930,-418 56,-34 117,-68 181,-95l0 415 0 567 0 163 0 206 0 5202 -11994 0z"/>
 </g>
</svg>
