<?xml version="1.0" encoding="UTF-8"?>
<!DOCTYPE svg PUBLIC "-//W3C//DTD SVG 1.1//EN" "http://www.w3.org/Graphics/SVG/1.1/DTD/svg11.dtd">
<!-- Creator: CorelDRAW X8 -->
<svg xmlns="http://www.w3.org/2000/svg" xml:space="preserve" width="55.5681in" height="52.193in" version="1.1" style="shape-rendering:geometricPrecision; text-rendering:geometricPrecision; image-rendering:optimizeQuality; fill-rule:evenodd; clip-rule:evenodd"
viewBox="0 0 97754 91817"
 xmlns:xlink="http://www.w3.org/1999/xlink">
 <defs>
  <style type="text/css">
   <![CDATA[
    .fil0 {fill:#EDEAE2}
   ]]>
  </style>
 </defs>
 <g id="Layer_x0020_1">
  <metadata id="CorelCorpID_0Corel-Layer"/>
  <path class="fil0" d="M83137 40746c1058,-333 8586,-745 8223,-9090 -363,-8344 -1572,-10702 -1149,-14572 423,-3870 1028,-8164 4475,-12941 3446,-4777 2962,-4111 2962,-4111l89 42486 17 10 0 8444 0 40845 -97754 0 0 -42808 0 -1329 0 -9626 0 -36532c4776,3905 10828,13439 7530,19044 -1556,2645 -5534,9858 -1614,13994 5926,6252 12344,6531 19373,9087 3064,1115 7897,3746 11174,3758 2989,11 5830,-1267 8827,-726 3569,644 7221,2113 10908,1536 2238,-351 2438,-1054 4274,-2322 3519,-2431 5260,-5975 9893,-5322 1235,174 2731,791 4214,1318 3046,1081 3589,1263 6448,8 934,-410 1561,-979 2110,-1151z"/>
 </g>
</svg>
