<?xml version="1.0" encoding="UTF-8"?>
<!DOCTYPE svg PUBLIC "-//W3C//DTD SVG 1.1//EN" "http://www.w3.org/Graphics/SVG/1.1/DTD/svg11.dtd">
<!-- Creator: CorelDRAW X8 -->
<svg xmlns="http://www.w3.org/2000/svg" xml:space="preserve" width="82.2357in" height="41.1896in" version="1.1" style="shape-rendering:geometricPrecision; text-rendering:geometricPrecision; image-rendering:optimizeQuality; fill-rule:evenodd; clip-rule:evenodd"
viewBox="0 0 11994 6007"
 xmlns:xlink="http://www.w3.org/1999/xlink">
 <defs>
  <style type="text/css">
   <![CDATA[
    .fil0 {fill:#D2EDC6;fill-rule:nonzero}
   ]]>
  </style>
 </defs>
 <g id="Layer_x0020_1">
  <metadata id="CorelCorpID_0Corel-Layer"/>
  <path class="fil0" d="M11994 6007l0 -5728c-368,-212 -796,-329 -1218,-258 -294,49 -538,316 -840,315 -1443,-6 -1169,-479 -2531,462 -482,333 -935,134 -1460,99 -317,-21 -632,35 -949,40 -304,5 -589,-61 -872,-170 -259,-99 -508,-223 -768,-318 -265,-96 -538,-152 -820,-148 -869,14 -1682,484 -2536,567l0 5139 11994 0z"/>
 </g>
</svg>
