<?xml version="1.0" encoding="UTF-8"?>
<!DOCTYPE svg PUBLIC "-//W3C//DTD SVG 1.1//EN" "http://www.w3.org/Graphics/SVG/1.1/DTD/svg11.dtd">
<!-- Creator: CorelDRAW X8 -->
<svg xmlns="http://www.w3.org/2000/svg" xml:space="preserve" width="82.2387in" height="33.021in" version="1.1" style="shape-rendering:geometricPrecision; text-rendering:geometricPrecision; image-rendering:optimizeQuality; fill-rule:evenodd; clip-rule:evenodd"
viewBox="0 0 11995 4816"
 xmlns:xlink="http://www.w3.org/1999/xlink">
 <defs>
  <style type="text/css">
   <![CDATA[
    .str0 {stroke:#FABDBD;stroke-width:0.437556}
    .fil0 {fill:#FABDBD;fill-rule:nonzero}
   ]]>
  </style>
 </defs>
 <g id="Layer_x0020_1">
  <metadata id="CorelCorpID_0Corel-Layer"/>
  <path class="fil0 str0" d="M0 1511l0 -330 0 -876c368,-212 796,-330 1218,-259 294,50 569,205 871,203 286,-1 514,-200 792,-239 569,-80 1041,352 1473,650 226,156 470,299 745,342 320,50 633,-59 951,-80 317,-21 632,35 948,40 304,5 590,-60 872,-169 259,-100 508,-224 769,-318 265,-97 537,-153 820,-148 868,13 1682,484 2535,567l0 287 0 330 0 3305 -11994 0 0 -3305z"/>
 </g>
</svg>
