<?xml version="1.0" encoding="UTF-8"?>
<!DOCTYPE svg PUBLIC "-//W3C//DTD SVG 1.1//EN" "http://www.w3.org/Graphics/SVG/1.1/DTD/svg11.dtd">
<!-- Creator: CorelDRAW X8 -->
<svg xmlns="http://www.w3.org/2000/svg" xml:space="preserve" width="82.2357in" height="37.7756in" version="1.1" style="shape-rendering:geometricPrecision; text-rendering:geometricPrecision; image-rendering:optimizeQuality; fill-rule:evenodd; clip-rule:evenodd"
viewBox="0 0 11994 5509"
 xmlns:xlink="http://www.w3.org/1999/xlink">
 <defs>
  <style type="text/css">
   <![CDATA[
    .fil0 {fill:#CBCEF4;fill-rule:nonzero}
   ]]>
  </style>
 </defs>
 <g id="Layer_x0020_1">
  <metadata id="CorelCorpID_0Corel-Layer"/>
  <path class="fil0" d="M0 5509l0 -4953c367,-212 795,-330 1218,-259 293,50 568,205 871,203 286,-1 514,-200 792,-239 568,-80 1041,352 1473,650 225,156 470,299 745,342 313,50 621,-55 933,-78 132,-46 267,-85 405,-110 368,-66 716,90 1083,89 402,-1 742,-292 1118,-428 265,-97 537,-152 820,-148 296,5 583,202 873,140 308,-67 497,-387 780,-529 267,-134 583,-213 883,-182l0 1138 0 206 0 4158 -11994 0z"/>
 </g>
</svg>
