<?xml version="1.0" encoding="UTF-8"?>
<!DOCTYPE svg PUBLIC "-//W3C//DTD SVG 1.1//EN" "http://www.w3.org/Graphics/SVG/1.1/DTD/svg11.dtd">
<!-- Creator: CorelDRAW X8 -->
<svg xmlns="http://www.w3.org/2000/svg" xml:space="preserve" width="82.2357in" height="43.3502in" version="1.1" style="shape-rendering:geometricPrecision; text-rendering:geometricPrecision; image-rendering:optimizeQuality; fill-rule:evenodd; clip-rule:evenodd"
viewBox="0 0 11994 6322"
 xmlns:xlink="http://www.w3.org/1999/xlink">
 <defs>
  <style type="text/css">
   <![CDATA[
    .fil0 {fill:#FFE3A8;fill-rule:nonzero}
   ]]>
  </style>
 </defs>
 <g id="Layer_x0020_1">
  <metadata id="CorelCorpID_0Corel-Layer"/>
  <path class="fil0" d="M0 2571l0 -330 0 -38 0 -839 0 -1070c140,74 271,167 407,247 570,340 800,-109 1225,317 1215,1217 1837,-97 3306,1214 285,255 661,159 950,-80l15 -1c42,-26 84,-49 128,-71 225,-109 815,76 1058,122 281,52 589,156 866,30 244,-111 407,-342 665,-429 265,-89 551,-49 824,-44 282,4 550,-40 774,-223 374,-306 541,-796 927,-1091 243,-185 546,-282 849,-285l0 2083 0 120 0 4119 -11994 0 0 -3751z"/>
 </g>
</svg>
